<svg width="24" height="26" viewBox="0 0 24 26" fill="none" xmlns="http://www.w3.org/2000/svg">
<path d="M0.492903 0.402757C0.150449 0.796407 -0.0242869 1.30243 0.00446916 1.81724V24.166C-0.0308913 24.6817 0.144654 25.1901 0.492903 25.5805L0.565648 25.6614L13.4416 13.1432V12.8401L0.565648 0.332031L0.492903 0.402757Z" fill="url(#paint0_linear_382_1515)"/>
<path d="M17.7024 17.3165L13.4417 13.1438V12.8407L17.7024 8.66797L17.796 8.72859L22.8985 11.5373C24.3534 12.3355 24.3534 13.649 22.8985 14.4572L17.8168 17.266L17.7024 17.3165Z" fill="url(#paint1_linear_382_1515)"/>
<path d="M17.8271 17.2597L13.4416 12.9961L0.49292 25.585C0.786576 25.8391 1.16245 25.9853 1.55537 25.9982C1.94828 26.0111 2.33346 25.89 2.6441 25.6557L17.8271 17.2597" fill="url(#paint2_linear_382_1515)"/>
<path d="M17.8271 8.73709L2.6441 0.35124C2.33548 0.113723 1.9506 -0.0104041 1.55715 0.000683384C1.1637 0.0117709 0.786873 0.157364 0.49292 0.411862L13.4416 13.0007L17.8271 8.73709Z" fill="url(#paint3_linear_382_1515)"/>
<path opacity="0.2" d="M17.7024 17.1758L2.6441 25.5111C2.34475 25.7308 1.97992 25.8496 1.60488 25.8496C1.22984 25.8496 0.865017 25.7308 0.565665 25.5111V25.5111L0.49292 25.5818L0.565665 25.6627C0.865017 25.8823 1.22984 26.0011 1.60488 26.0011C1.97992 26.0011 2.34475 25.8823 2.6441 25.6627L17.8271 17.2667L17.7024 17.1758Z" fill="black"/>
<path opacity="0.12" d="M0.492881 25.4441C0.159078 25.0434 -0.00450748 24.5337 0.0356251 24.0195V24.1711C0.000264654 24.6867 0.175808 25.1951 0.524056 25.5856L0.596803 25.5148L0.492881 25.4441Z" fill="black"/>
<path opacity="0.12" d="M22.8985 14.3095L17.7024 17.1688L17.7959 17.2597L22.8985 14.451C23.1997 14.3272 23.461 14.1267 23.6548 13.8706C23.8487 13.6146 23.9679 13.3125 24.0001 12.9961C23.9351 13.2836 23.8015 13.5523 23.6102 13.7804C23.4189 14.0085 23.1751 14.1898 22.8985 14.3095Z" fill="black"/>
<path opacity="0.25" d="M2.64413 0.493111L22.8985 11.6877C23.1751 11.8075 23.4189 11.9887 23.6102 12.2169C23.8015 12.445 23.9351 12.7136 24 13.0012C23.9679 12.6848 23.8487 12.3826 23.6548 12.1266C23.4609 11.8706 23.1997 11.6701 22.8985 11.5463L2.64413 0.351662C1.19962 -0.456613 0.0045166 0.210215 0.0045166 1.82676V1.97832C0.0356931 0.361766 1.19962 -0.30506 2.64413 0.493111Z" fill="white"/>
<defs>
<linearGradient id="paint0_linear_382_1515" x1="12.2984" y1="1.58486" x2="-4.64843" y2="19.016" gradientUnits="userSpaceOnUse">
<stop stop-color="#00A0FF"/>
<stop offset="0.01" stop-color="#00A1FF"/>
<stop offset="0.26" stop-color="#00BEFF"/>
<stop offset="0.51" stop-color="#00D2FF"/>
<stop offset="0.76" stop-color="#00DFFF"/>
<stop offset="1" stop-color="#00E3FF"/>
</linearGradient>
<linearGradient id="paint1_linear_382_1515" x1="24.8003" y1="12.9922" x2="-0.338365" y2="12.9922" gradientUnits="userSpaceOnUse">
<stop stop-color="#FFE000"/>
<stop offset="0.41" stop-color="#FFBD00"/>
<stop offset="0.78" stop-color="#FFA500"/>
<stop offset="1" stop-color="#FF9C00"/>
</linearGradient>
<linearGradient id="paint2_linear_382_1515" x1="15.4473" y1="15.3199" x2="-7.53931" y2="38.953" gradientUnits="userSpaceOnUse">
<stop stop-color="#FF3A44"/>
<stop offset="1" stop-color="#C31162"/>
</linearGradient>
<linearGradient id="paint3_linear_382_1515" x1="-2.77022" y1="-7.02427" x2="7.49079" y2="3.52999" gradientUnits="userSpaceOnUse">
<stop stop-color="#32A071"/>
<stop offset="0.07" stop-color="#2DA771"/>
<stop offset="0.48" stop-color="#15CF74"/>
<stop offset="0.8" stop-color="#06E775"/>
<stop offset="1" stop-color="#00F076"/>
</linearGradient>
</defs>
</svg>
