<svg width="168" height="60" viewBox="0 0 168 60" fill="none" xmlns="http://www.w3.org/2000/svg">
<rect x="0.5" y="0.5" width="167" height="59" rx="11.5" stroke="black"/>
<path d="M62.0719 39.8629H56.018L54.5642 44.16H52L57.7342 28.2617H60.3983L66.1324 44.16H63.5245L62.0719 39.8629ZM56.645 37.88H61.4438L59.0781 30.906H59.0119L56.645 37.88Z" fill="black"/>
<path d="M78.5163 38.3688C78.5163 41.9708 76.5904 44.2851 73.6839 44.2851C72.9477 44.3236 72.2155 44.1538 71.5711 43.7952C70.9268 43.4365 70.3964 42.9035 70.0406 42.2571H69.9856V47.9983H67.6088V32.5726H69.9094V34.5005H69.9531C70.3253 33.8572 70.8646 33.327 71.5139 32.9661C72.1631 32.6053 72.898 32.4274 73.6402 32.4514C76.5791 32.4514 78.5163 34.7768 78.5163 38.3688ZM76.0733 38.3688C76.0733 36.0221 74.8617 34.4793 73.0132 34.4793C71.1972 34.4793 69.9756 36.0546 69.9756 38.3688C69.9756 40.7043 71.1972 42.2684 73.0132 42.2684C74.8617 42.2684 76.0732 40.7368 76.0732 38.3688H76.0733Z" fill="black"/>
<path d="M91.2617 38.3688C91.2617 41.9708 89.3351 44.2851 86.4287 44.2851C85.6924 44.3236 84.9602 44.1538 84.3159 43.7952C83.6715 43.4365 83.1411 42.9035 82.7854 42.2571H82.7304V47.9983H80.3535V32.5726H82.6542V34.5005H82.6979C83.07 33.8572 83.6094 33.327 84.2586 32.9661C84.9079 32.6053 85.6427 32.4274 86.3849 32.4514C89.3239 32.4514 91.2617 34.7768 91.2617 38.3688ZM88.818 38.3688C88.818 36.0221 87.6065 34.4793 85.758 34.4793C83.9419 34.4793 82.7204 36.0546 82.7204 38.3688C82.7204 40.7043 83.9419 42.2684 85.758 42.2684C87.6065 42.2684 88.818 40.7368 88.818 38.3688V38.3688Z" fill="black"/>
<path d="M99.6837 39.7337C99.8598 41.3103 101.39 42.3455 103.481 42.3455C105.484 42.3455 106.925 41.3103 106.925 39.8887C106.925 38.6547 106.056 37.9158 103.998 37.4095L101.939 36.9131C99.023 36.208 97.6691 34.8427 97.6691 32.6272C97.6691 29.8841 100.057 28 103.447 28C106.804 28 109.105 29.8841 109.182 32.6272H106.783C106.639 31.0406 105.329 30.0829 103.414 30.0829C101.5 30.0829 100.19 31.0519 100.19 32.4622C100.19 33.5862 101.026 34.2475 103.073 34.7539L104.823 35.1839C108.082 35.9554 109.435 37.2657 109.435 39.5911C109.435 42.5655 107.069 44.4283 103.305 44.4283C99.7823 44.4283 97.4042 42.6092 97.2506 39.7336L99.6837 39.7337Z" fill="black"/>
<path d="M114.567 29.8281V32.5712H116.769V34.4553H114.567V40.8454C114.567 41.8381 115.008 42.3007 115.976 42.3007C116.237 42.2961 116.498 42.2778 116.758 42.2456V44.1185C116.322 44.1999 115.88 44.2368 115.437 44.2286C113.093 44.2286 112.179 43.3471 112.179 41.0992V34.4553H110.495V32.5712H112.179V29.8281H114.567Z" fill="black"/>
<path d="M118.043 38.3684C118.043 34.7214 120.189 32.4297 123.535 32.4297C126.892 32.4297 129.028 34.7214 129.028 38.3684C129.028 42.0254 126.903 44.3071 123.535 44.3071C120.167 44.3071 118.043 42.0254 118.043 38.3684ZM126.606 38.3684C126.606 35.8666 125.461 34.3901 123.535 34.3901C121.609 34.3901 120.463 35.8779 120.463 38.3684C120.463 40.8802 121.609 42.3455 123.535 42.3455C125.461 42.3455 126.606 40.8802 126.606 38.3684H126.606Z" fill="black"/>
<path d="M130.987 32.5725H133.254V34.5454H133.309C133.463 33.9292 133.823 33.3847 134.331 33.0033C134.838 32.622 135.461 32.427 136.095 32.4512C136.369 32.4503 136.642 32.4801 136.909 32.54V34.7655C136.563 34.6597 136.202 34.6111 135.841 34.6217C135.496 34.6077 135.152 34.6686 134.832 34.8003C134.512 34.9321 134.225 35.1314 133.99 35.3848C133.755 35.6381 133.577 35.9395 133.469 36.2681C133.361 36.5967 133.325 36.9448 133.364 37.2885V44.1636H130.987L130.987 32.5725Z" fill="black"/>
<path d="M147.868 40.7589C147.548 42.8631 145.501 44.3071 142.882 44.3071C139.513 44.3071 137.422 42.0479 137.422 38.4234C137.422 34.7877 139.524 32.4297 142.782 32.4297C145.985 32.4297 148 34.6326 148 38.1471V38.9623H139.822V39.1061C139.784 39.5326 139.837 39.9624 139.978 40.3667C140.119 40.7711 140.344 41.1408 140.639 41.4513C140.933 41.7619 141.291 42.0061 141.687 42.1678C142.083 42.3295 142.509 42.405 142.937 42.3892C143.498 42.4419 144.062 42.3117 144.544 42.018C145.026 41.7242 145.4 41.2826 145.611 40.7589L147.868 40.7589ZM139.833 37.2994H145.622C145.643 36.9159 145.585 36.532 145.451 36.172C145.317 35.812 145.111 35.4836 144.844 35.2073C144.577 34.9311 144.256 34.713 143.902 34.5668C143.547 34.4206 143.165 34.3493 142.782 34.3576C142.395 34.3553 142.011 34.4297 141.653 34.5766C141.295 34.7235 140.969 34.94 140.695 35.2135C140.421 35.487 140.203 35.8121 140.055 36.1702C139.907 36.5282 139.832 36.912 139.833 37.2995V37.2994Z" fill="black"/>
<path d="M52.2983 24.1094V20.8835H52.8736C53.0696 20.7187 53.2528 20.4844 53.4233 20.1804C53.5938 19.8764 53.7386 19.4659 53.858 18.9489C53.9773 18.4318 54.0597 17.7685 54.1051 16.9588L54.3097 13.2727H59.6918V20.8835H60.6804V24.0966H59.419V22H53.5597V24.1094H52.2983ZM54.4247 20.8835H58.4304V14.4062H55.5028L55.3665 16.9588C55.3295 17.5753 55.2685 18.1293 55.1832 18.6207C55.1009 19.1122 54.9943 19.5469 54.8636 19.9247C54.7358 20.2997 54.5895 20.6193 54.4247 20.8835ZM64.7777 22.1321C64.1641 22.1321 63.6286 21.9915 63.1712 21.7102C62.7138 21.429 62.3587 21.0355 62.1058 20.5298C61.853 20.0241 61.7266 19.4332 61.7266 18.7571C61.7266 18.0781 61.853 17.4844 62.1058 16.9759C62.3587 16.4673 62.7138 16.0724 63.1712 15.7912C63.6286 15.5099 64.1641 15.3693 64.7777 15.3693C65.3913 15.3693 65.9268 15.5099 66.3842 15.7912C66.8416 16.0724 67.1967 16.4673 67.4496 16.9759C67.7024 17.4844 67.8288 18.0781 67.8288 18.7571C67.8288 19.4332 67.7024 20.0241 67.4496 20.5298C67.1967 21.0355 66.8416 21.429 66.3842 21.7102C65.9268 21.9915 65.3913 22.1321 64.7777 22.1321ZM64.782 21.0625C65.1797 21.0625 65.5092 20.9574 65.7706 20.7472C66.032 20.5369 66.2251 20.2571 66.3501 19.9077C66.478 19.5582 66.5419 19.1733 66.5419 18.7528C66.5419 18.3352 66.478 17.9517 66.3501 17.6023C66.2251 17.25 66.032 16.9673 65.7706 16.7543C65.5092 16.5412 65.1797 16.4347 64.782 16.4347C64.3814 16.4347 64.049 16.5412 63.7848 16.7543C63.5234 16.9673 63.3288 17.25 63.201 17.6023C63.076 17.9517 63.0135 18.3352 63.0135 18.7528C63.0135 19.1733 63.076 19.5582 63.201 19.9077C63.3288 20.2571 63.5234 20.5369 63.7848 20.7472C64.049 20.9574 64.3814 21.0625 64.782 21.0625ZM72.0082 22.1321C71.3746 22.1321 70.8292 21.9886 70.3718 21.7017C69.9173 21.4119 69.5678 21.0128 69.3235 20.5043C69.0792 19.9957 68.957 19.4134 68.957 18.7571C68.957 18.0923 69.082 17.5057 69.332 16.9972C69.582 16.4858 69.9343 16.0866 70.3888 15.7997C70.8434 15.5128 71.3789 15.3693 71.9954 15.3693C72.4925 15.3693 72.9357 15.4616 73.3249 15.6463C73.7141 15.8281 74.0281 16.0838 74.2667 16.4134C74.5082 16.7429 74.6516 17.1278 74.6971 17.5682H73.457C73.3888 17.2614 73.2326 16.9972 72.9883 16.7756C72.7468 16.554 72.4229 16.4432 72.0167 16.4432C71.6616 16.4432 71.3505 16.5369 71.0835 16.7244C70.8192 16.9091 70.6133 17.1733 70.4656 17.517C70.3178 17.858 70.244 18.2614 70.244 18.7273C70.244 19.2045 70.3164 19.6165 70.4613 19.9631C70.6062 20.3097 70.8107 20.5781 71.0749 20.7685C71.342 20.9588 71.6559 21.054 72.0167 21.054C72.2582 21.054 72.4769 21.0099 72.6729 20.9219C72.8718 20.831 73.038 20.7017 73.1715 20.5341C73.3079 20.3665 73.4031 20.1648 73.457 19.929H74.6971C74.6516 20.3523 74.5138 20.7301 74.2837 21.0625C74.0536 21.3949 73.7454 21.6562 73.359 21.8466C72.9755 22.0369 72.5252 22.1321 72.0082 22.1321ZM75.5643 16.554V15.4545H81.087V16.554H78.9521V22H77.7077V16.554H75.5643ZM83.2401 24.4545C83.0497 24.4545 82.8764 24.4389 82.7202 24.4077C82.5639 24.3793 82.4474 24.348 82.3707 24.3139L82.6776 23.2699C82.9105 23.3324 83.1179 23.3594 83.2997 23.3509C83.4815 23.3423 83.642 23.2741 83.7812 23.1463C83.9233 23.0185 84.0483 22.8097 84.1562 22.5199L84.3139 22.0852L81.919 15.4545H83.2827L84.9403 20.5341H85.0085L86.6662 15.4545H88.0341L85.3366 22.8736C85.2116 23.2145 85.0526 23.5028 84.8594 23.7386C84.6662 23.9773 84.4361 24.1563 84.169 24.2756C83.902 24.3949 83.5923 24.4545 83.2401 24.4545ZM89.2315 22V15.4545H94.571V22H93.3224V16.554H90.4716V22H89.2315ZM100.711 18.1776V19.2812H97.1651V18.1776H100.711ZM97.5231 15.4545V22H96.2745V15.4545H97.5231ZM101.601 15.4545V22H100.357V15.4545H101.601ZM106.063 22.1321C105.449 22.1321 104.914 21.9915 104.456 21.7102C103.999 21.429 103.644 21.0355 103.391 20.5298C103.138 20.0241 103.012 19.4332 103.012 18.7571C103.012 18.0781 103.138 17.4844 103.391 16.9759C103.644 16.4673 103.999 16.0724 104.456 15.7912C104.914 15.5099 105.449 15.3693 106.063 15.3693C106.676 15.3693 107.212 15.5099 107.669 15.7912C108.127 16.0724 108.482 16.4673 108.735 16.9759C108.988 17.4844 109.114 18.0781 109.114 18.7571C109.114 19.4332 108.988 20.0241 108.735 20.5298C108.482 21.0355 108.127 21.429 107.669 21.7102C107.212 21.9915 106.676 22.1321 106.063 22.1321ZM106.067 21.0625C106.465 21.0625 106.794 20.9574 107.056 20.7472C107.317 20.5369 107.51 20.2571 107.635 19.9077C107.763 19.5582 107.827 19.1733 107.827 18.7528C107.827 18.3352 107.763 17.9517 107.635 17.6023C107.51 17.25 107.317 16.9673 107.056 16.7543C106.794 16.5412 106.465 16.4347 106.067 16.4347C105.667 16.4347 105.334 16.5412 105.07 16.7543C104.809 16.9673 104.614 17.25 104.486 17.6023C104.361 17.9517 104.299 18.3352 104.299 18.7528C104.299 19.1733 104.361 19.5582 104.486 19.9077C104.614 20.2571 104.809 20.5369 105.07 20.7472C105.334 20.9574 105.667 21.0625 106.067 21.0625ZM113.712 22V15.4545H116.426C117.165 15.4545 117.75 15.6122 118.182 15.9276C118.614 16.2401 118.83 16.6648 118.83 17.2017C118.83 17.5852 118.708 17.8892 118.463 18.1136C118.219 18.3381 117.895 18.4886 117.492 18.5653C117.784 18.5994 118.053 18.6875 118.297 18.8295C118.542 18.9687 118.738 19.1562 118.885 19.392C119.036 19.6278 119.111 19.9091 119.111 20.2358C119.111 20.5824 119.022 20.8892 118.843 21.1562C118.664 21.4205 118.404 21.6278 118.063 21.7784C117.725 21.9261 117.317 22 116.84 22H113.712ZM114.909 20.9347H116.84C117.155 20.9347 117.402 20.8594 117.581 20.7088C117.76 20.5582 117.85 20.3537 117.85 20.0952C117.85 19.7912 117.76 19.5526 117.581 19.3793C117.402 19.2031 117.155 19.1151 116.84 19.1151H114.909V20.9347ZM114.909 18.1818H116.439C116.678 18.1818 116.882 18.1477 117.053 18.0795C117.226 18.0114 117.358 17.9148 117.449 17.7898C117.543 17.6619 117.59 17.5114 117.59 17.3381C117.59 17.0852 117.486 16.8878 117.279 16.7457C117.071 16.6037 116.787 16.5327 116.426 16.5327H114.909V18.1818Z" fill="black"/>
<g clip-path="url(#clip0_382_1496)">
<path d="M38.2682 25.5452C38.1043 25.6712 35.2109 27.2868 35.2109 30.8792C35.2109 35.0344 38.8926 36.5044 39.0028 36.5408C38.9859 36.6304 38.4179 38.554 37.0617 40.514C35.8523 42.2388 34.5893 43.9608 32.6679 43.9608C30.7466 43.9608 30.2521 42.8548 28.034 42.8548C25.8725 42.8548 25.1039 43.9972 23.3464 43.9972C21.5889 43.9972 20.3627 42.4012 18.9527 40.4412C17.3195 38.1396 16 34.564 16 31.1704C16 25.7272 19.5715 22.8404 23.0865 22.8404C24.9542 22.8404 26.5111 24.0556 27.6837 24.0556C28.7998 24.0556 30.5403 22.7676 32.6651 22.7676C33.4704 22.7676 36.3638 22.8404 38.2682 25.5452ZM31.6564 20.4632C32.5351 19.43 33.1568 17.9964 33.1568 16.5628C33.1568 16.364 33.1398 16.1624 33.1031 16C31.6733 16.0532 29.9724 16.9436 28.9467 18.1224C28.1414 19.0296 27.3898 20.4632 27.3898 21.9164C27.3898 22.1348 27.4265 22.3532 27.4435 22.4232C27.5339 22.44 27.6808 22.4596 27.8278 22.4596C29.1106 22.4596 30.724 21.6084 31.6564 20.4632Z" fill="black"/>
</g>
<defs>
<clipPath id="clip0_382_1496">
<rect width="23" height="28" fill="white" transform="translate(16 16)"/>
</clipPath>
</defs>
</svg>
