<svg width="116" height="26" viewBox="0 0 116 26" fill="none" xmlns="http://www.w3.org/2000/svg">
<g clip-path="url(#clip0_104_3)">
<path fill-rule="evenodd" clip-rule="evenodd" d="M20.5039 4.07218C18.6922 1.55529 16.8594 0 16.8594 0C18.1396 1.35921 19.199 2.67432 20.0657 3.943C19.6126 3.81376 19.1398 3.69219 18.6467 3.57894C17.9589 2.62725 17.0227 1.69435 15.7676 0.823439C15.7676 0.823439 17.09 1.77595 18.2927 3.49986C17.3813 3.30182 16.4022 3.13163 15.3508 2.99319C14.6857 2.43064 13.8978 1.87759 12.9698 1.34074C12.944 1.32557 12.9303 1.31796 12.9303 1.31796L12.9698 1.34074C13.165 1.45527 14.0568 2.00048 15.0387 2.95132C14.8756 2.93094 14.7873 2.92287 14.7873 2.92287C14.8724 2.93291 14.9569 2.94315 15.0411 2.95358C15.2291 3.13573 15.4203 3.33274 15.6107 3.54443C15.3465 3.43521 15.0771 3.32684 14.8023 3.21936C12.5883 2.3085 10.98 1.8947 10.98 1.8947C12.3573 2.31779 13.629 2.76044 14.8023 3.21936C15.0726 3.33053 15.3518 3.44911 15.6382 3.57524C16.6106 4.66469 17.5521 6.13776 17.8945 7.97097C17.1931 7.79257 16.4575 7.65697 15.6917 7.57953C15.1772 6.61074 14.0687 5.35363 11.8487 5.69803C11.8293 4.56865 11.9498 3.83818 11.9498 3.83818C11.7918 4.50299 11.6909 5.13496 11.6385 5.73484C10.7595 5.90594 9.71447 6.32169 8.47394 7.08897C8.41689 7.12343 8.38666 7.14333 8.38666 7.14333C8.41586 7.12502 8.44495 7.1069 8.47394 7.08897C8.81307 6.88411 10.0998 6.16476 11.6149 6.05415C11.5791 6.65057 11.5916 7.21417 11.6433 7.74574C10.9379 7.87634 10.2165 8.06395 9.48142 8.31718C9.44337 7.9756 9.44476 7.76823 9.44476 7.76823C9.43571 7.96222 9.43236 8.15057 9.4344 8.33346C8.96037 8.49844 8.48069 8.69075 7.99595 8.9127C7.61529 7.67573 7.47737 6.51207 7.4497 5.5573C9.11286 4.47417 11.1223 3.5971 13.5414 3.1276C13.5414 3.1276 10.6604 3.20606 7.44423 5.20415C7.44211 4.15728 7.56655 3.41663 7.60872 3.19593L7.62249 3.1276C7.62249 3.1276 7.61732 3.15098 7.60872 3.19593C7.46286 3.92671 7.36857 4.62144 7.3205 5.28187C6.69573 5.67862 6.0596 6.14834 5.43063 6.70442C4.73515 6.39155 3.82313 6.32965 2.62882 6.67179C2.62882 6.67179 3.93623 6.34832 5.21164 6.90182C4.01038 8.00591 2.84331 9.43263 1.84065 11.2762C2.03346 10.4612 2.29212 9.57299 2.62861 8.60528C2.62861 8.60528 2.02807 9.97951 1.57195 11.7882C1.0878 12.7448 0.647383 13.8069 0.266818 14.9863C0.0780595 15.5393 0 15.8678 0 15.8678C0.0852448 15.5669 0.174261 15.2731 0.266818 14.9863C0.491195 14.329 0.871989 13.3544 1.46402 12.2372C0.921255 14.6142 0.708546 17.5678 2.3482 19.1777C1.74487 19.3258 1.10812 19.6161 0.447731 20.0982C0.447731 20.0982 1.31358 19.5545 2.6152 19.4144C2.77739 19.5442 2.95468 19.6627 3.14813 19.7685L3.17274 19.8415C3.32012 20.3001 3.43932 20.5881 3.43932 20.5881C3.34306 20.3307 3.2543 20.0819 3.17274 19.8415L3.14982 19.7695C3.38016 19.8954 3.6334 20.0034 3.91131 20.0914C3.91131 20.0914 3.54626 19.9708 3.09283 19.5842C3.07358 19.52 3.05415 19.4535 3.0347 19.3849C4.35223 19.3412 6.02236 19.7503 7.6769 21.423C7.6769 21.423 5.73887 18.798 2.9506 19.074C2.44217 17.0995 2.10526 13.8691 5.25299 13.6482C5.59558 14.3007 6.01282 14.8625 6.48301 15.3459C5.62552 17.0384 5.86723 19.3117 8.72959 22.2803C8.04807 22.3031 7.62249 22.2403 7.62249 22.2403C8.06906 22.3443 8.49458 22.4144 8.89987 22.4546C9.0283 22.5843 9.16169 22.7154 9.30018 22.8478C9.38517 22.9308 9.43409 22.9747 9.43409 22.9747C9.38893 22.9323 9.3443 22.89 9.30018 22.8478C9.20996 22.7597 9.07909 22.6274 8.92293 22.4569C10.49 22.6081 11.7537 22.312 12.7621 21.8041C15.9322 22.6643 18.1381 22.9868 19.656 22.9743C18.8108 23.9368 17.9871 24.6697 17.3832 25.1566C17.0771 25.3932 16.7584 25.6292 16.4268 25.8643C16.4268 25.8643 16.8039 25.6236 17.3832 25.1566C18.3197 24.4329 19.1391 23.7031 19.8523 22.9708C20.9216 22.9403 21.6275 22.7344 22.079 22.4332C23.0209 23.6369 23.4131 24.5464 23.4131 24.5464C23.125 23.7049 22.7291 22.9563 22.2648 22.2919C23.0938 21.5722 22.7771 20.4508 22.4661 19.7717C22.7443 19.9138 23.0137 20.0409 23.2744 20.1536C23.9532 21.7102 24.024 22.9748 24.024 22.9748C23.9777 21.9591 23.8275 21.0688 23.5996 20.2885C24.9949 20.8431 26.1334 20.9742 27.0621 20.8103C26.7413 21.9913 26.248 23.236 25.5552 24.5466C25.5552 24.5466 26.6957 23.0408 27.4076 20.7334C31.5469 19.6133 31.1359 12.2728 31.1359 12.2728C31.0813 15.3196 30.5028 17.3095 29.6351 18.5612C30.0025 17.4714 32.8608 7.83684 20.5039 4.07218ZM15.3513 2.9936C15.9768 3.08412 17.0739 3.27568 18.3932 3.6462C18.7307 4.14522 19.0554 4.70537 19.3349 5.32256C18.3939 4.80165 17.3576 4.29319 16.2176 3.80094C15.9553 3.53017 15.6672 3.26082 15.3513 2.9936ZM18.7713 3.75561C19.1809 4.34991 19.4957 4.95047 19.7328 5.54684C20.4677 5.96846 21.1417 6.39779 21.7593 6.83287C21.3521 5.99825 20.8616 5.14007 20.2784 4.25914C19.7585 4.06564 19.2525 3.89895 18.7713 3.75561ZM16.2791 3.86487C17.2851 4.33145 18.3589 4.88659 19.4288 5.53622C19.8322 6.48239 20.1253 7.55612 20.1981 8.74359C19.6561 8.51738 19.084 8.31044 18.4845 8.13322C18.2791 6.74229 17.6323 5.2849 16.2791 3.86487ZM19.8214 5.77902C20.2037 6.82628 20.3523 7.85634 20.3602 8.81223C21.3542 9.23879 22.2436 9.72803 23.0107 10.2133C22.7765 9.27893 22.4389 8.30799 21.9805 7.30185C21.2822 6.74805 20.5547 6.24108 19.8214 5.77902ZM19.1447 13.8747C19.9996 12.0372 20.2793 10.3522 20.2038 8.84725C19.6312 8.62002 19.0644 8.43309 18.5049 8.2823C18.8397 10.9456 17.5804 13.3497 16.6086 14.758C17.4125 14.8036 20.6946 15.1699 22.6174 18.117C23.4342 15.9211 23.7669 13.2955 23.0294 10.2885C22.1301 9.72386 21.2386 9.26947 20.3605 8.91038C20.3558 11.7265 19.1447 13.8747 19.1447 13.8747ZM11.6758 8.03604C10.9162 8.17747 10.1941 8.36639 9.5161 8.58466C9.63739 9.4065 9.96472 10.7168 10.8478 11.8889C11.6485 11.5531 12.3322 11.3445 12.6816 11.2469C12.2113 10.3539 11.8345 9.28736 11.6758 8.03604ZM12.6936 11.2697C12.0541 11.513 11.4758 11.7657 10.954 12.0259C11.8095 13.0965 13.1497 14.0286 15.2495 14.3297C14.528 13.7595 13.4819 12.7568 12.6936 11.2697ZM15.4411 14.3552C13.3325 12.4005 12.4302 9.98863 12.0682 7.96784C13.1595 7.79163 14.3235 7.71645 15.5414 7.79348C15.7317 8.03349 15.9147 8.30319 16.0885 8.60551C16.0885 8.60551 16.016 8.26396 15.8073 7.81267C16.4973 7.86862 17.2039 7.97398 17.9238 8.13788C18.2293 9.99137 17.9194 12.2037 16.427 14.7516L16.4268 14.7516L16.427 14.7516C16.177 15.1783 15.8939 15.6145 15.5749 16.0599C15.5749 16.0599 16.0317 15.5892 16.588 14.7877C19.5625 15.4754 21.3504 17.0339 22.4236 18.6087C22.339 18.8119 22.2505 19.0111 22.1584 19.2064L22.1474 19.1898L22.156 19.2115C22.122 19.2835 22.0875 19.3551 22.0526 19.4261C20.9422 18.9081 20.1402 18.3642 19.9889 18.2592C20.7051 18.7603 21.3755 19.1798 22.003 19.5257C21.7448 20.0405 21.4632 20.526 21.1682 20.9816C19.7643 19.5636 18.0941 18.6672 16.8451 18.1404L16.8595 18.1385L16.8416 18.1389C16.6191 18.0452 16.4101 17.9632 16.2184 17.892C16.2697 17.7615 16.2935 17.6869 16.2935 17.6869C16.2561 17.7515 16.2185 17.8152 16.1804 17.878C15.4608 17.6131 14.9943 17.5043 14.9943 17.5043C15.3946 17.6371 15.778 17.7816 16.1452 17.9357C16.1018 18.0063 16.0581 18.0757 16.0139 18.144C11.6019 18.0941 8.84114 16.794 7.12657 15.3242C7.35422 14.8933 7.66362 14.4633 8.07043 14.0402C8.22625 14.0847 8.38628 14.1333 8.55063 14.1859C8.55063 14.1859 8.38675 14.1072 8.11255 13.9968C8.47758 13.6237 8.91894 13.256 9.4474 12.8979C12.7419 17.07 18.635 17.7759 18.635 17.7759C14.254 16.6469 11.5571 14.7057 9.91263 12.5991C10.1482 12.4555 10.3987 12.3136 10.6649 12.1738C11.9846 13.8075 14.0601 14.2671 15.3269 14.3903C15.7809 14.7411 16.0882 14.9093 16.0882 14.9093C15.8808 14.7453 15.6834 14.577 15.4954 14.4051C16.0607 14.4498 16.4272 14.4273 16.4272 14.4273C16.0817 14.4179 15.7533 14.3934 15.4411 14.3552ZM12.0199 7.68114C11.9266 7.08853 11.8788 6.53454 11.8586 6.04184C13.0117 6.00986 14.2717 6.35392 15.3352 7.5479C14.2813 7.4675 13.1728 7.49903 12.0199 7.68114ZM21.9441 21.8593C22.4276 21.4027 22.604 20.722 22.3367 19.7475C22.0565 20.2299 21.7371 20.7134 21.3755 21.197C21.5718 21.4068 21.762 21.6274 21.9441 21.8593ZM16.6575 18.1617C18.5443 19.0352 19.969 20.1584 21.0118 21.2186C20.6764 21.7172 20.3265 22.178 19.976 22.5998C17.9914 22.8299 15.1687 22.3221 12.8492 21.7593C14.7247 20.7777 15.6953 19.0658 16.0842 18.208C16.3298 18.1929 16.5246 18.1754 16.6575 18.1617ZM16.6171 18.1431C16.4782 18.0793 16.3368 18.0168 16.1928 17.9558C16.1701 18.0116 16.1434 18.075 16.1125 18.1449C16.2784 18.1461 16.4466 18.1455 16.6171 18.1431ZM21.2058 21.4198C21.3997 21.6247 21.5793 21.8264 21.7451 22.0227C21.363 22.2964 20.8457 22.4696 20.2369 22.5645C20.5876 22.1833 20.91 21.8016 21.2058 21.4198ZM8.76368 22.2791C7.69846 21.0647 5.84481 18.4317 6.9227 15.7625C9.7667 18.2478 14.1109 18.316 15.9677 18.2148C14.8117 19.9707 13.3823 20.9802 12.0352 21.5547C10.7603 21.2234 9.71306 20.9014 9.16204 20.7254C9.02311 20.6804 8.8828 20.6345 8.7411 20.5879C8.7411 20.5879 8.89196 20.6391 9.16204 20.7254C10.1675 21.0512 11.1011 21.3359 11.9679 21.583C10.7339 22.0971 9.57415 22.2489 8.76368 22.2791ZM9.44168 8.6088C9.50387 10.0892 9.93065 11.1946 10.5453 12.0196C10.2898 12.1333 10.0257 12.2594 9.7594 12.3983C8.95121 11.3146 8.41365 10.193 8.06189 9.12019C8.49739 8.93944 8.95813 8.76676 9.44168 8.6088ZM7.65197 9.29583C7.99865 10.6088 8.56819 11.7229 9.27059 12.6673C8.70795 12.994 8.15312 13.3793 7.66658 13.8278C7.0587 13.6116 6.21326 13.3675 5.37797 13.3128C4.61401 12.107 4.42145 11.1401 4.41402 11.1017C5.08 10.6424 6.06532 10.0301 7.30022 9.45539C7.54909 10.2929 7.66823 11.3676 7.58549 12.7443C7.58549 12.7443 7.75895 11.0577 7.35644 9.42933C7.45345 9.38455 7.55197 9.34002 7.65197 9.29583ZM5.59328 13.6363C6.15264 13.6352 6.80979 13.7198 7.57959 13.9093C7.24938 14.2243 6.95347 14.5696 6.7118 14.9466C6.25778 14.5074 5.8901 14.0614 5.59328 13.6363ZM3.08494 19.5774C3.06387 19.5128 3.04335 19.4487 3.02336 19.3853C2.97642 19.3869 2.92993 19.3891 2.88391 19.3919C2.95217 19.4596 3.01945 19.5213 3.08494 19.5774ZM2.63216 19.1178C2.73201 19.1002 2.83088 19.0864 2.9287 19.0762C1.5304 14.372 3.20516 13.2862 5.08212 13.3017C4.78321 12.6548 4.5544 11.9249 4.414 11.1018C4.00502 11.3838 3.71647 11.6082 3.5645 11.7308C4.8137 10.7053 6.04342 9.89928 7.24466 9.2787C6.85439 8.1044 6.19829 7.42668 5.50143 7.04382C3.79928 8.55322 2.58384 10.2454 1.73603 11.7411C0.848879 15.9019 1.73786 18.0501 2.63216 19.1178ZM3.44035 11.8334C3.48176 11.799 3.52314 11.7648 3.5645 11.7308C3.48258 11.7969 3.44035 11.8334 3.44035 11.8334ZM27.1926 20.2932C25.9933 20.5944 24.6835 20.3858 23.5121 20.0057C23.346 19.498 23.1461 19.0393 22.9205 18.6249C24.1929 15.8627 24.2478 13.1623 23.6759 10.7127C24.5154 11.2876 25.3606 11.9609 26.207 12.7445C26.207 12.7445 25.2823 11.758 23.659 10.6411C23.4334 9.69672 23.1151 8.79006 22.7381 7.93202C26.0518 10.8263 28.4554 14.8704 27.1926 20.2932ZM23.151 19.8817C23.0236 19.6124 22.8779 19.3364 22.7111 19.0582C22.6209 19.2364 22.5256 19.4148 22.4249 19.5933C22.6572 19.6937 22.9001 19.791 23.151 19.8817ZM7.29794 5.65734C6.73118 6.03548 6.20544 6.43744 5.71813 6.85493C6.56539 7.36517 7.04333 8.28369 7.30852 9.24587C7.40656 9.19571 7.50441 9.14679 7.60207 9.09908C7.35276 8.07466 7.23776 6.93184 7.29794 5.65734ZM22.474 7.35795C28.2611 11.7951 28.4665 16.7391 27.5649 20.1816C28.3263 19.9145 29.0302 19.418 29.6084 18.5994C30.7542 10.2379 25.3668 6.28396 20.7695 4.4485C21.3733 5.32138 21.9646 6.29861 22.474 7.35795ZM6.85065 18.2416C6.85065 18.2416 6.87055 18.2623 6.90972 18.299C6.89003 18.28 6.87034 18.2609 6.85065 18.2416ZM6.90972 18.299C7.33486 18.6974 10.0299 20.9831 14.1842 19.19C14.1842 19.19 10.5512 21.8039 6.90972 18.299ZM24.0244 20.0915C24.0244 20.0915 26.9089 17.2419 25.2642 13.4041C25.2642 13.4041 27.8453 17.2292 24.0244 20.0915Z" fill="#909090"/>
<path fill-rule="evenodd" clip-rule="evenodd" d="M47.7801 18.6451V10.2838L44.0274 15.2874H43.5995L39.9291 10.2674V18.6451H37.7565V7.12366H40.2583L43.8628 12.0779L47.4674 7.12366H49.9527V18.6451H47.7801ZM58.2152 11.6335L58.281 10.5142H60.2068V18.6286H58.314L58.2152 17.4435C57.7543 18.3982 56.487 18.859 55.5817 18.8755C53.1787 18.8919 51.4011 17.4106 51.4011 14.5632C51.4011 11.7651 53.261 10.3003 55.6311 10.3167C56.7174 10.3167 57.7543 10.827 58.2152 11.6335ZM55.8122 12.1108C54.479 12.1108 53.4091 13.016 53.4091 14.5632C53.4091 16.1103 54.479 17.0321 55.8122 17.0321C58.9723 17.0321 58.9723 12.1108 55.8122 12.1108ZM63.9101 10.4813V18.6286H61.902V10.4813H63.9101ZM61.721 8.22642C61.721 6.66281 64.0911 6.66281 64.0911 8.22642C64.0911 9.79004 61.721 9.79004 61.721 8.22642ZM73.7032 18.6286H71.6952V14.3821C71.6952 13.1477 71.0204 12.2095 69.7366 12.2095C68.5022 12.2095 67.6627 13.2465 67.6627 14.4809V18.6286H65.6712V10.4978H67.4652L67.5969 11.6005C68.4199 10.794 69.2428 10.3826 70.2633 10.3826C72.1725 10.3826 73.7032 11.8145 73.7032 14.3657V18.6286Z" fill="#909090"/>
<path fill-rule="evenodd" clip-rule="evenodd" d="M77.4343 13.6415V16.6041H80.7591C81.6479 16.6041 82.9152 16.3079 82.9152 15.2215C82.9152 14.1846 81.6479 13.6415 80.7591 13.6415H77.4343ZM77.4343 9.08229V11.7322H80.7591C82.1252 11.7322 82.5696 11.1561 82.5696 10.4978C82.5696 9.97109 82.1416 9.08229 80.7591 9.08229H77.4343ZM80.7592 7.1072C83.0306 7.1072 84.7258 8.12767 84.7258 10.4484C84.7258 11.3372 84.2979 12.1931 83.2281 12.6704C84.5777 13.0819 85.0715 14.5138 85.0715 15.238C85.0715 17.8056 83.1458 18.6286 80.7592 18.6286H75.2948V7.1072H80.7592ZM86.4539 10.5142H88.3138L88.462 11.4524C89.0874 10.4484 89.9268 10.3003 90.7498 10.3003C91.5892 10.3003 92.3957 10.6295 92.8401 11.0738L91.9348 12.8185C91.5234 12.4729 91.1448 12.2918 90.4864 12.2918C89.433 12.2918 88.462 12.8514 88.462 14.3492V18.6286H86.4539V10.5142ZM99.9669 11.6335L100.033 10.5142H101.958V18.6286H100.066L99.9669 17.4435C99.506 18.3982 98.2387 18.859 97.3334 18.8755C94.9304 18.8919 93.1528 17.4106 93.1528 14.5632C93.1528 11.7651 95.0127 10.3003 97.3828 10.3167C98.4691 10.3167 99.506 10.827 99.9669 11.6335ZM97.5639 12.1108C96.2307 12.1108 95.1608 13.016 95.1608 14.5632C95.1608 16.1103 96.2307 17.0321 97.5639 17.0321C100.724 17.0321 100.724 12.1108 97.5639 12.1108ZM105.662 10.4813V18.6286H103.654V10.4813H105.662ZM103.473 8.22642C103.473 6.66281 105.843 6.66281 105.843 8.22642C105.843 9.79004 103.473 9.79004 103.473 8.22642ZM115.455 18.6286H113.447V14.3821C113.447 13.1477 112.772 12.2095 111.488 12.2095C110.254 12.2095 109.415 13.2465 109.415 14.4809V18.6286H107.423V10.4978H109.217L109.349 11.6005C110.172 10.794 110.995 10.3826 112.015 10.3826C113.924 10.3826 115.455 11.8145 115.455 14.3657V18.6286Z" fill="#909090"/>
</g>
<defs>
<clipPath id="clip0_104_3">
<rect width="116" height="26" fill="white"/>
</clipPath>
</defs>
</svg>
