<svg width="66" height="66" viewBox="0 0 66 66" fill="none" xmlns="http://www.w3.org/2000/svg">
<path fill-rule="evenodd" clip-rule="evenodd" d="M21.0466 21.7633C21.7087 20.7702 22.7332 20 24 20C25.2668 20 26.2913 20.7702 26.9534 21.7633C27.6201 22.7634 28 24.0875 28 25.5C28 26.9125 27.6201 28.2366 26.9534 29.2367C26.2913 30.2298 25.2668 31 24 31C22.7332 31 21.7087 30.2298 21.0466 29.2367C20.3799 28.2366 20 26.9125 20 25.5C20 24.0875 20.3799 22.7634 21.0466 21.7633ZM22.7107 22.8727C22.2917 23.5013 22 24.4272 22 25.5C22 26.5728 22.2917 27.4987 22.7107 28.1273C23.1344 28.7628 23.61 29 24 29C24.39 29 24.8656 28.7628 25.2893 28.1273C25.7083 27.4987 26 26.5728 26 25.5C26 24.4272 25.7083 23.5013 25.2893 22.8727C24.8656 22.2372 24.39 22 24 22C23.61 22 23.1344 22.2372 22.7107 22.8727Z" fill="black"/>
<path fill-rule="evenodd" clip-rule="evenodd" d="M39.0466 21.7633C39.7087 20.7702 40.7332 20 42 20C43.2668 20 44.2913 20.7702 44.9534 21.7633C45.6201 22.7634 46 24.0875 46 25.5C46 26.9125 45.6201 28.2366 44.9534 29.2367C44.2913 30.2298 43.2668 31 42 31C40.7332 31 39.7087 30.2298 39.0466 29.2367C38.3799 28.2366 38 26.9125 38 25.5C38 24.0875 38.3799 22.7634 39.0466 21.7633ZM40.7107 22.8727C40.2917 23.5013 40 24.4272 40 25.5C40 26.5728 40.2917 27.4987 40.7107 28.1273C41.1344 28.7628 41.61 29 42 29C42.39 29 42.8656 28.7628 43.2893 28.1273C43.7083 27.4987 44 26.5728 44 25.5C44 24.4272 43.7083 23.5013 43.2893 22.8727C42.8656 22.2372 42.39 22 42 22C41.61 22 41.1344 22.2372 40.7107 22.8727Z" fill="black"/>
<path opacity="0.9" fill-rule="evenodd" clip-rule="evenodd" d="M19.0923 46.4191C19.3237 46.9204 19.9176 47.1393 20.419 46.9081C20.4191 46.9081 20.4189 46.9082 20.419 46.9081L20.0002 46C20.4193 46.908 20.4191 46.9081 20.419 46.9081L20.4213 46.907L20.4326 46.9019L20.4826 46.8794C20.5279 46.8591 20.5969 46.8287 20.6878 46.7895C20.8698 46.7111 21.1398 46.5978 21.4851 46.4612C22.1763 46.1878 23.1667 45.822 24.3555 45.4562C26.7442 44.7213 29.8845 44.0018 32.9893 44.0034H32.9904C36.106 44.0018 39.2516 44.7214 41.6427 45.4563C42.8328 45.8221 43.8238 46.1878 44.5152 46.4612C44.8606 46.5979 45.1307 46.7112 45.3127 46.7895C45.4036 46.8287 45.4726 46.8592 45.5179 46.8794L45.5679 46.9019L45.5792 46.907L45.5812 46.908L46.0002 46C46.4193 45.092 46.4191 45.092 46.4189 45.0919L46.4168 45.0909L46.4118 45.0886L46.3949 45.0809L46.3334 45.0532C46.2803 45.0295 46.2033 44.9955 46.1038 44.9527C45.9049 44.867 45.6162 44.746 45.2506 44.6014C44.5198 44.3124 43.4789 43.9284 42.2302 43.5446C39.7438 42.7803 36.3845 42.0017 32.9899 42.0034C29.6053 42.0017 26.251 42.7805 23.7674 43.5447C22.52 43.9284 21.4798 44.3125 20.7494 44.6014C20.384 44.746 20.0954 44.867 19.8966 44.9527C19.7971 44.9955 19.7201 45.0295 19.667 45.0533L19.6055 45.0809L19.5886 45.0886L19.5837 45.0909L19.5822 45.0916C19.5819 45.0917 19.5812 45.092 20.0002 46L19.5812 45.092C19.0797 45.3235 18.8608 45.9176 19.0923 46.4191ZM45.5812 46.908C45.5813 46.908 45.5811 46.9079 45.5812 46.908ZM45.5812 46.908C46.0826 47.1392 46.6768 46.9204 46.9082 46.4191C47.1396 45.9176 46.9203 45.3233 46.4189 45.0919L46.0002 46C45.5812 46.908 45.5811 46.9079 45.5812 46.908Z" fill="black"/>
<path fill-rule="evenodd" clip-rule="evenodd" d="M0 33C0 14.7746 14.7746 0 33 0C51.2254 0 66 14.7746 66 33C66 51.2254 51.2254 66 33 66C14.7746 66 0 51.2254 0 33ZM33 2C15.8792 2 2 15.8792 2 33C2 50.1208 15.8792 64 33 64C50.1208 64 64 50.1208 64 33C64 15.8792 50.1208 2 33 2Z" fill="black"/>
</svg>
