<svg width="66" height="66" viewBox="0 0 66 66" fill="none" xmlns="http://www.w3.org/2000/svg">
<path fill-rule="evenodd" clip-rule="evenodd" d="M18.2474 0.46967C18.3881 0.329018 18.5789 0.25 18.7778 0.25H47.2222C47.4211 0.25 47.6119 0.329018 47.7526 0.46967L65.5303 18.2474C65.671 18.3881 65.75 18.5789 65.75 18.7778V47.2222C65.75 47.4211 65.671 47.6119 65.5303 47.7526L47.7526 65.5303C47.6119 65.671 47.4211 65.75 47.2222 65.75H18.7778C18.5789 65.75 18.3881 65.671 18.2474 65.5303L0.46967 47.7526C0.329018 47.6119 0.25 47.4211 0.25 47.2222V18.7778C0.25 18.5789 0.329018 18.3881 0.46967 18.2474L18.2474 0.46967ZM19.0884 1.75L1.75 19.0884V46.9116L19.0884 64.25H46.9116L64.25 46.9116V19.0884L46.9116 1.75H19.0884Z" fill="black"/>
<path fill-rule="evenodd" clip-rule="evenodd" d="M18.6 26.75C17.0059 26.75 15.75 28.001 15.75 29.5V36.5C15.75 37.999 17.0059 39.25 18.6 39.25H47.4C48.9941 39.25 50.25 37.999 50.25 36.5V29.5C50.25 28.001 48.9941 26.75 47.4 26.75H18.6ZM14.25 29.5C14.25 27.133 16.2176 25.25 18.6 25.25H47.4C49.7824 25.25 51.75 27.133 51.75 29.5V36.5C51.75 38.867 49.7824 40.75 47.4 40.75H18.6C16.2176 40.75 14.25 38.867 14.25 36.5V29.5Z" fill="black"/>
</svg>
