<svg width="168" height="60" viewBox="0 0 168 60" fill="none" xmlns="http://www.w3.org/2000/svg">
<rect x="0.5" y="0.5" width="167" height="59" rx="11.5" stroke="black"/>
<path d="M86.0248 33.8274C84.9734 33.8298 83.9464 34.1417 83.0736 34.7234C82.2008 35.3052 81.5214 36.1309 81.1214 37.0959C80.7213 38.0609 80.6186 39.122 80.8261 40.145C81.0336 41.168 81.5421 42.107 82.2873 42.8431C83.0325 43.5793 83.9808 44.0796 85.0125 44.2808C86.0441 44.482 87.1127 44.375 88.0831 43.9734C89.0535 43.5718 89.8821 42.8936 90.4641 42.0246C91.0462 41.1555 91.3555 40.1347 91.3531 39.0912C91.3632 38.395 91.2322 37.704 90.9677 37.0592C90.7032 36.4143 90.3107 35.8289 89.8136 35.3378C89.3164 34.8466 88.7248 34.4598 88.0739 34.2003C87.423 33.9408 86.7261 33.814 86.0248 33.8274ZM86.0248 42.2866C85.3804 42.3314 84.7373 42.1826 84.1792 41.8598C83.6211 41.537 83.1737 41.055 82.8953 40.4764C82.6168 39.8979 82.5201 39.2496 82.6178 38.6158C82.7155 37.982 83.003 37.392 83.443 36.9225C83.883 36.4531 84.4551 36.1259 85.0849 35.9834C85.7147 35.8409 86.3732 35.8898 86.9746 36.1237C87.5761 36.3576 88.0928 36.7657 88.4575 37.2949C88.8222 37.8241 89.018 38.45 89.0196 39.0912C89.0397 39.4974 88.9777 39.9036 88.8371 40.2857C88.6965 40.6677 88.4803 41.018 88.2012 41.3158C87.9221 41.6136 87.5857 41.853 87.2119 42.0197C86.8381 42.1864 86.4345 42.2772 86.0248 42.2866ZM74.395 33.8274C73.3436 33.8298 72.3166 34.1417 71.4438 34.7234C70.571 35.3052 69.8916 36.1309 69.4916 37.0959C69.0915 38.0609 68.9888 39.122 69.1963 40.145C69.4038 41.168 69.9123 42.107 70.6575 42.8431C71.4026 43.5793 72.351 44.0796 73.3827 44.2808C74.4143 44.482 75.4829 44.375 76.4533 43.9734C77.4236 43.5718 78.2522 42.8936 78.8343 42.0246C79.4164 41.1555 79.7257 40.1347 79.7232 39.0912C79.7334 38.395 79.6024 37.704 79.3379 37.0592C79.0734 36.4143 78.6809 35.8289 78.1837 35.3378C77.6866 34.8466 77.0949 34.4598 76.444 34.2003C75.7931 33.9408 75.0963 33.814 74.395 33.8274ZM74.395 42.2866C73.7506 42.3314 73.1075 42.1826 72.5494 41.8598C71.9913 41.537 71.5439 41.055 71.2654 40.4764C70.987 39.8979 70.8903 39.2496 70.988 38.6158C71.0857 37.982 71.3732 37.392 71.8132 36.9225C72.2531 36.4531 72.8252 36.1259 73.4551 35.9834C74.0849 35.8409 74.7433 35.8898 75.3448 36.1237C75.9463 36.3576 76.4629 36.7657 76.8276 37.2949C77.1923 37.8241 77.3882 38.45 77.3898 39.0912C77.4099 39.4974 77.3478 39.9036 77.2073 40.2857C77.0667 40.6677 76.8505 41.018 76.5714 41.3158C76.2923 41.6136 75.9559 41.853 75.5821 42.0197C75.2083 42.1864 74.8047 42.2772 74.395 42.2866ZM60.569 35.4499V37.6792H65.9596C65.8751 38.7293 65.4353 39.7201 64.7118 40.4907C64.171 41.0376 63.5207 41.4656 62.8027 41.7473C62.0848 42.0289 61.3153 42.1578 60.544 42.1256C58.9555 42.1256 57.432 41.4993 56.3087 40.3844C55.1854 39.2695 54.5544 37.7573 54.5544 36.1806C54.5544 34.6039 55.1854 33.0917 56.3087 31.9768C57.432 30.8619 58.9555 30.2356 60.544 30.2356C62.0669 30.2131 63.5374 30.7871 64.6369 31.8333L66.2217 30.2603C65.4779 29.5302 64.5949 28.9548 63.6242 28.5677C62.6536 28.1806 61.6149 27.9897 60.569 28.0062C59.4596 27.9633 58.353 28.1432 57.3154 28.535C56.2778 28.9268 55.3305 29.5225 54.5304 30.2864C53.7302 31.0502 53.0937 31.9666 52.6589 32.9804C52.2241 33.9943 52 35.0849 52 36.1868C52 37.2887 52.2241 38.3793 52.6589 39.3931C53.0937 40.407 53.7302 41.3234 54.5304 42.0872C55.3305 42.8511 56.2778 43.4468 57.3154 43.8386C58.353 44.2304 59.4596 44.4102 60.569 44.3674C61.6364 44.4097 62.7007 44.2274 63.6922 43.8325C64.6836 43.4376 65.5796 42.839 66.3215 42.0761C67.6319 40.6473 68.3301 38.7681 68.2681 36.837C68.2726 36.3722 68.235 35.908 68.1558 35.4499H60.569ZM117.108 37.1838C116.783 36.2335 116.174 35.4038 115.363 34.8044C114.552 34.205 113.577 33.8643 112.566 33.8274C111.884 33.826 111.208 33.9637 110.581 34.2318C109.954 34.4999 109.39 34.8928 108.922 35.3861C108.454 35.8795 108.093 36.4628 107.861 37.1001C107.63 37.7374 107.532 38.415 107.575 39.0912C107.564 40.2218 107.922 41.3255 108.596 42.2374C109.269 43.1493 110.222 43.8206 111.311 44.1508C112.401 44.4811 113.569 44.4526 114.64 44.0698C115.712 43.6869 116.631 42.9701 117.258 42.0265L115.449 40.788C115.179 41.2342 114.796 41.6027 114.339 41.8569C113.882 42.1111 113.365 42.2421 112.841 42.2371C112.3 42.2593 111.765 42.1185 111.306 41.8334C110.847 41.5482 110.486 41.132 110.27 40.6394L117.37 37.7288L117.108 37.1838ZM109.871 38.9426C109.846 38.5578 109.898 38.172 110.025 37.8076C110.152 37.4432 110.35 37.1075 110.61 36.8203C110.869 36.5331 111.183 36.3001 111.534 36.135C111.885 35.9699 112.266 35.8759 112.654 35.8586C113.056 35.8342 113.456 35.9282 113.805 36.1287C114.153 36.3292 114.434 36.6273 114.613 36.9857L109.871 38.9426ZM104.106 44.0454H106.439V28.5635H104.106V44.0454ZM100.288 35.004H100.2C99.8516 34.6099 99.4214 34.2953 98.939 34.0815C98.4566 33.8678 97.9334 33.7599 97.4051 33.7654C96.0414 33.8311 94.7555 34.415 93.8138 35.3961C92.8721 36.3772 92.3468 37.6804 92.3468 39.0355C92.3468 40.3905 92.8721 41.6937 93.8138 42.6748C94.7555 43.6559 96.0414 44.2398 97.4051 44.3055C97.9341 44.316 98.459 44.2104 98.9421 43.9963C99.4253 43.7822 99.8549 43.4649 100.2 43.0669H100.288V43.8224C100.288 45.8413 99.202 46.9188 97.455 46.9188C96.8714 46.9061 96.3048 46.7215 95.8271 46.3885C95.3494 46.0555 94.9822 45.5891 94.7721 45.0486L92.7506 45.8784C93.1244 46.8101 93.7742 47.6073 94.6142 48.1646C95.4541 48.7219 96.4447 49.013 97.455 48.9996C100.188 48.9996 102.446 47.4018 102.446 43.5128V34.137H100.288V35.004ZM97.6047 42.2866C96.7871 42.236 96.0198 41.878 95.4588 41.2855C94.8979 40.6929 94.5857 39.9104 94.5857 39.0974C94.5857 38.2843 94.8979 37.5018 95.4588 36.9093C96.0198 36.3167 96.7871 35.9587 97.6047 35.9081C98.0043 35.9252 98.3964 36.022 98.7576 36.1925C99.1187 36.3631 99.4416 36.6041 99.7071 36.901C99.9725 37.198 100.175 37.5449 100.303 37.9212C100.43 38.2975 100.48 38.6953 100.45 39.0912C100.484 39.4884 100.436 39.8883 100.31 40.2668C100.184 40.6452 99.982 40.9944 99.716 41.2931C99.4501 41.5918 99.1258 41.8338 98.763 42.0046C98.4001 42.1754 98.006 42.2713 97.6047 42.2866ZM128.039 28.5635H122.449V44.0454H124.783V38.1747H128.039C128.704 38.2221 129.372 38.133 130.001 37.913C130.63 37.693 131.206 37.3467 131.694 36.8959C132.182 36.445 132.572 35.8991 132.838 35.2924C133.104 34.6856 133.241 34.0309 133.241 33.3691C133.241 32.7073 133.104 32.0526 132.838 31.4458C132.572 30.8391 132.182 30.2932 131.694 29.8423C131.206 29.3915 130.63 29.0452 130.001 28.8252C129.372 28.6052 128.704 28.5161 128.039 28.5635ZM128.039 35.9948H124.783V30.7186H128.089C128.44 30.7186 128.787 30.7872 129.111 30.9204C129.435 31.0536 129.73 31.2488 129.978 31.4949C130.226 31.741 130.422 32.0332 130.556 32.3548C130.691 32.6764 130.76 33.021 130.76 33.3691C130.76 33.7172 130.691 34.0618 130.556 34.3834C130.422 34.705 130.226 34.9972 129.978 35.2433C129.73 35.4894 129.435 35.6846 129.111 35.8178C128.787 35.951 128.44 36.0196 128.089 36.0196L128.039 35.9948ZM142.439 33.7778C141.59 33.7258 140.743 33.9222 140.005 34.3426C139.266 34.7631 138.668 35.3891 138.284 36.1434L140.343 36.998C140.551 36.6257 140.863 36.3212 141.242 36.1212C141.621 35.9212 142.05 35.8343 142.477 35.871C142.773 35.8366 143.073 35.8612 143.36 35.9432C143.646 36.0252 143.914 36.1631 144.146 36.3487C144.378 36.5343 144.571 36.764 144.713 37.0243C144.855 37.2847 144.943 37.5705 144.973 37.865V38.0136C144.222 37.6222 143.387 37.4181 142.539 37.4191C140.318 37.4191 138.047 38.6577 138.047 40.9118C138.069 41.391 138.188 41.8608 138.396 42.2935C138.605 42.7262 138.899 43.1129 139.261 43.4306C139.623 43.7483 140.045 43.9905 140.504 44.143C140.962 44.2954 141.446 44.3549 141.928 44.3179C142.513 44.35 143.097 44.227 143.619 43.9615C144.141 43.696 144.582 43.2974 144.898 42.8068H144.973V44.0454H147.219V38.088C147.219 35.3755 145.147 33.8026 142.489 33.8026L142.439 33.7778ZM142.152 42.2619C141.391 42.2619 140.331 41.8779 140.331 40.949C140.331 39.7105 141.653 39.2893 142.826 39.2893C143.568 39.2712 144.3 39.4508 144.948 39.8095C144.869 40.4822 144.548 41.1038 144.043 41.5593C143.538 42.0147 142.884 42.2731 142.202 42.2866L142.152 42.2619ZM155.404 34.137L152.734 40.8499H152.659L149.889 34.137H147.393L151.549 43.5252L149.178 48.7395H151.611L158 34.137H155.404ZM134.441 44.0454H136.762V28.5635H134.441V44.0454Z" fill="black"/>
<path d="M52.2983 24.1094V20.8835H52.8736C53.0696 20.7187 53.2528 20.4844 53.4233 20.1804C53.5938 19.8764 53.7386 19.4659 53.858 18.9489C53.9773 18.4318 54.0597 17.7685 54.1051 16.9588L54.3097 13.2727H59.6918V20.8835H60.6804V24.0966H59.419V22H53.5597V24.1094H52.2983ZM54.4247 20.8835H58.4304V14.4062H55.5028L55.3665 16.9588C55.3295 17.5753 55.2685 18.1293 55.1832 18.6207C55.1009 19.1122 54.9943 19.5469 54.8636 19.9247C54.7358 20.2997 54.5895 20.6193 54.4247 20.8835ZM64.7777 22.1321C64.1641 22.1321 63.6286 21.9915 63.1712 21.7102C62.7138 21.429 62.3587 21.0355 62.1058 20.5298C61.853 20.0241 61.7266 19.4332 61.7266 18.7571C61.7266 18.0781 61.853 17.4844 62.1058 16.9759C62.3587 16.4673 62.7138 16.0724 63.1712 15.7912C63.6286 15.5099 64.1641 15.3693 64.7777 15.3693C65.3913 15.3693 65.9268 15.5099 66.3842 15.7912C66.8416 16.0724 67.1967 16.4673 67.4496 16.9759C67.7024 17.4844 67.8288 18.0781 67.8288 18.7571C67.8288 19.4332 67.7024 20.0241 67.4496 20.5298C67.1967 21.0355 66.8416 21.429 66.3842 21.7102C65.9268 21.9915 65.3913 22.1321 64.7777 22.1321ZM64.782 21.0625C65.1797 21.0625 65.5092 20.9574 65.7706 20.7472C66.032 20.5369 66.2251 20.2571 66.3501 19.9077C66.478 19.5582 66.5419 19.1733 66.5419 18.7528C66.5419 18.3352 66.478 17.9517 66.3501 17.6023C66.2251 17.25 66.032 16.9673 65.7706 16.7543C65.5092 16.5412 65.1797 16.4347 64.782 16.4347C64.3814 16.4347 64.049 16.5412 63.7848 16.7543C63.5234 16.9673 63.3288 17.25 63.201 17.6023C63.076 17.9517 63.0135 18.3352 63.0135 18.7528C63.0135 19.1733 63.076 19.5582 63.201 19.9077C63.3288 20.2571 63.5234 20.5369 63.7848 20.7472C64.049 20.9574 64.3814 21.0625 64.782 21.0625ZM72.0082 22.1321C71.3746 22.1321 70.8292 21.9886 70.3718 21.7017C69.9173 21.4119 69.5678 21.0128 69.3235 20.5043C69.0792 19.9957 68.957 19.4134 68.957 18.7571C68.957 18.0923 69.082 17.5057 69.332 16.9972C69.582 16.4858 69.9343 16.0866 70.3888 15.7997C70.8434 15.5128 71.3789 15.3693 71.9954 15.3693C72.4925 15.3693 72.9357 15.4616 73.3249 15.6463C73.7141 15.8281 74.0281 16.0838 74.2667 16.4134C74.5082 16.7429 74.6516 17.1278 74.6971 17.5682H73.457C73.3888 17.2614 73.2326 16.9972 72.9883 16.7756C72.7468 16.554 72.4229 16.4432 72.0167 16.4432C71.6616 16.4432 71.3505 16.5369 71.0835 16.7244C70.8192 16.9091 70.6133 17.1733 70.4656 17.517C70.3178 17.858 70.244 18.2614 70.244 18.7273C70.244 19.2045 70.3164 19.6165 70.4613 19.9631C70.6062 20.3097 70.8107 20.5781 71.0749 20.7685C71.342 20.9588 71.6559 21.054 72.0167 21.054C72.2582 21.054 72.4769 21.0099 72.6729 20.9219C72.8718 20.831 73.038 20.7017 73.1715 20.5341C73.3079 20.3665 73.4031 20.1648 73.457 19.929H74.6971C74.6516 20.3523 74.5138 20.7301 74.2837 21.0625C74.0536 21.3949 73.7454 21.6562 73.359 21.8466C72.9755 22.0369 72.5252 22.1321 72.0082 22.1321ZM75.5643 16.554V15.4545H81.087V16.554H78.9521V22H77.7077V16.554H75.5643ZM83.2401 24.4545C83.0497 24.4545 82.8764 24.4389 82.7202 24.4077C82.5639 24.3793 82.4474 24.348 82.3707 24.3139L82.6776 23.2699C82.9105 23.3324 83.1179 23.3594 83.2997 23.3509C83.4815 23.3423 83.642 23.2741 83.7812 23.1463C83.9233 23.0185 84.0483 22.8097 84.1562 22.5199L84.3139 22.0852L81.919 15.4545H83.2827L84.9403 20.5341H85.0085L86.6662 15.4545H88.0341L85.3366 22.8736C85.2116 23.2145 85.0526 23.5028 84.8594 23.7386C84.6662 23.9773 84.4361 24.1563 84.169 24.2756C83.902 24.3949 83.5923 24.4545 83.2401 24.4545ZM89.2315 22V15.4545H94.571V22H93.3224V16.554H90.4716V22H89.2315ZM100.711 18.1776V19.2812H97.1651V18.1776H100.711ZM97.5231 15.4545V22H96.2745V15.4545H97.5231ZM101.601 15.4545V22H100.357V15.4545H101.601ZM106.063 22.1321C105.449 22.1321 104.914 21.9915 104.456 21.7102C103.999 21.429 103.644 21.0355 103.391 20.5298C103.138 20.0241 103.012 19.4332 103.012 18.7571C103.012 18.0781 103.138 17.4844 103.391 16.9759C103.644 16.4673 103.999 16.0724 104.456 15.7912C104.914 15.5099 105.449 15.3693 106.063 15.3693C106.676 15.3693 107.212 15.5099 107.669 15.7912C108.127 16.0724 108.482 16.4673 108.735 16.9759C108.988 17.4844 109.114 18.0781 109.114 18.7571C109.114 19.4332 108.988 20.0241 108.735 20.5298C108.482 21.0355 108.127 21.429 107.669 21.7102C107.212 21.9915 106.676 22.1321 106.063 22.1321ZM106.067 21.0625C106.465 21.0625 106.794 20.9574 107.056 20.7472C107.317 20.5369 107.51 20.2571 107.635 19.9077C107.763 19.5582 107.827 19.1733 107.827 18.7528C107.827 18.3352 107.763 17.9517 107.635 17.6023C107.51 17.25 107.317 16.9673 107.056 16.7543C106.794 16.5412 106.465 16.4347 106.067 16.4347C105.667 16.4347 105.334 16.5412 105.07 16.7543C104.809 16.9673 104.614 17.25 104.486 17.6023C104.361 17.9517 104.299 18.3352 104.299 18.7528C104.299 19.1733 104.361 19.5582 104.486 19.9077C104.614 20.2571 104.809 20.5369 105.07 20.7472C105.334 20.9574 105.667 21.0625 106.067 21.0625ZM113.712 22V15.4545H116.426C117.165 15.4545 117.75 15.6122 118.182 15.9276C118.614 16.2401 118.83 16.6648 118.83 17.2017C118.83 17.5852 118.708 17.8892 118.463 18.1136C118.219 18.3381 117.895 18.4886 117.492 18.5653C117.784 18.5994 118.053 18.6875 118.297 18.8295C118.542 18.9687 118.738 19.1562 118.885 19.392C119.036 19.6278 119.111 19.9091 119.111 20.2358C119.111 20.5824 119.022 20.8892 118.843 21.1562C118.664 21.4205 118.404 21.6278 118.063 21.7784C117.725 21.9261 117.317 22 116.84 22H113.712ZM114.909 20.9347H116.84C117.155 20.9347 117.402 20.8594 117.581 20.7088C117.76 20.5582 117.85 20.3537 117.85 20.0952C117.85 19.7912 117.76 19.5526 117.581 19.3793C117.402 19.2031 117.155 19.1151 116.84 19.1151H114.909V20.9347ZM114.909 18.1818H116.439C116.678 18.1818 116.882 18.1477 117.053 18.0795C117.226 18.0114 117.358 17.9148 117.449 17.7898C117.543 17.6619 117.59 17.5114 117.59 17.3381C117.59 17.0852 117.486 16.8878 117.279 16.7457C117.071 16.6037 116.787 16.5327 116.426 16.5327H114.909V18.1818Z" fill="black"/>
<path d="M16.4929 17.4028C16.1504 17.7964 15.9757 18.3024 16.0045 18.8172V41.166C15.9691 41.6817 16.1447 42.1901 16.4929 42.5805L16.5656 42.6614L29.4416 30.1432V29.8401L16.5656 17.332L16.4929 17.4028Z" fill="url(#paint0_linear_382_1510)"/>
<path d="M33.7024 34.3165L29.4417 30.1438V29.8407L33.7024 25.668L33.796 25.7286L38.8985 28.5373C40.3534 29.3355 40.3534 30.649 38.8985 31.4572L33.8168 34.266L33.7024 34.3165Z" fill="url(#paint1_linear_382_1510)"/>
<path d="M33.8271 34.2597L29.4416 29.9961L16.4929 42.585C16.7866 42.8391 17.1625 42.9853 17.5554 42.9982C17.9483 43.0111 18.3335 42.89 18.6441 42.6557L33.8271 34.2597" fill="url(#paint2_linear_382_1510)"/>
<path d="M33.8271 25.7371L18.6441 17.3512C18.3355 17.1137 17.9506 16.9896 17.5572 17.0007C17.1637 17.0118 16.7869 17.1574 16.4929 17.4119L29.4416 30.0007L33.8271 25.7371Z" fill="url(#paint3_linear_382_1510)"/>
<path opacity="0.2" d="M33.7024 34.1758L18.6441 42.5111C18.3447 42.7308 17.9799 42.8496 17.6049 42.8496C17.2298 42.8496 16.865 42.7308 16.5657 42.5111V42.5111L16.4929 42.5818L16.5657 42.6627C16.865 42.8823 17.2298 43.0011 17.6049 43.0011C17.9799 43.0011 18.3447 42.8823 18.6441 42.6627L33.8271 34.2667L33.7024 34.1758Z" fill="black"/>
<path opacity="0.12" d="M16.4929 42.4441C16.1591 42.0434 15.9955 41.5337 16.0356 41.0195V41.1711C16.0003 41.6867 16.1758 42.1951 16.5241 42.5856L16.5968 42.5148L16.4929 42.4441Z" fill="black"/>
<path opacity="0.12" d="M38.8985 31.3095L33.7024 34.1688L33.7959 34.2597L38.8985 31.451C39.1997 31.3272 39.461 31.1267 39.6548 30.8706C39.8487 30.6146 39.9679 30.3125 40.0001 29.9961C39.9351 30.2836 39.8015 30.5523 39.6102 30.7804C39.4189 31.0085 39.1751 31.1898 38.8985 31.3095Z" fill="black"/>
<path opacity="0.25" d="M18.6441 17.4931L38.8985 28.6877C39.1751 28.8075 39.4189 28.9887 39.6102 29.2169C39.8015 29.445 39.9351 29.7136 40 30.0012C39.9679 29.6848 39.8487 29.3826 39.6548 29.1266C39.4609 28.8706 39.1997 28.6701 38.8985 28.5463L18.6441 17.3517C17.1996 16.5434 16.0045 17.2102 16.0045 18.8268V18.9783C16.0357 17.3618 17.1996 16.6949 18.6441 17.4931Z" fill="white"/>
<defs>
<linearGradient id="paint0_linear_382_1510" x1="28.2984" y1="18.5849" x2="11.3516" y2="36.016" gradientUnits="userSpaceOnUse">
<stop stop-color="#00A0FF"/>
<stop offset="0.01" stop-color="#00A1FF"/>
<stop offset="0.26" stop-color="#00BEFF"/>
<stop offset="0.51" stop-color="#00D2FF"/>
<stop offset="0.76" stop-color="#00DFFF"/>
<stop offset="1" stop-color="#00E3FF"/>
</linearGradient>
<linearGradient id="paint1_linear_382_1510" x1="40.8003" y1="29.9922" x2="15.6616" y2="29.9922" gradientUnits="userSpaceOnUse">
<stop stop-color="#FFE000"/>
<stop offset="0.41" stop-color="#FFBD00"/>
<stop offset="0.78" stop-color="#FFA500"/>
<stop offset="1" stop-color="#FF9C00"/>
</linearGradient>
<linearGradient id="paint2_linear_382_1510" x1="31.4473" y1="32.3199" x2="8.46069" y2="55.953" gradientUnits="userSpaceOnUse">
<stop stop-color="#FF3A44"/>
<stop offset="1" stop-color="#C31162"/>
</linearGradient>
<linearGradient id="paint3_linear_382_1510" x1="13.2298" y1="9.97573" x2="23.4908" y2="20.53" gradientUnits="userSpaceOnUse">
<stop stop-color="#32A071"/>
<stop offset="0.07" stop-color="#2DA771"/>
<stop offset="0.48" stop-color="#15CF74"/>
<stop offset="0.8" stop-color="#06E775"/>
<stop offset="1" stop-color="#00F076"/>
</linearGradient>
</defs>
</svg>
