<svg width="156" height="26" viewBox="0 0 156 26" fill="none" xmlns="http://www.w3.org/2000/svg">
<g clip-path="url(#clip0_101_16)">
<path d="M32.6849 23.3992C32.6849 24.6906 31.674 25.7369 30.4264 25.7369C30.3545 25.7369 10.1178 25.7369 10.0497 25.7369C4.49955 25.7369 0 21.1333 0 15.3886C0 9.64387 4.49955 5.09422 10.0497 5.09422C10.2429 5.09422 30.471 5.09422 30.471 5.09422C31.7335 5.09422 32.7555 6.0893 32.7555 7.39597C32.7555 8.70266 31.7321 9.76056 30.471 9.76056L14.6818 9.77851C13.8269 9.77851 13.1295 10.6095 13.0712 11.4776C13.0688 11.516 13.065 11.4109 13.065 11.4507C13.065 11.4507 13.0688 19.5075 13.075 19.5651C13.1617 20.405 13.848 21.0591 14.6818 21.0591C14.6818 21.0591 30.3757 21.0602 30.4264 21.0602C31.674 21.0615 32.6849 22.1079 32.6849 23.3992ZM110.452 11.1237V19.4573C110.452 23.0427 107.49 25.9767 103.87 25.9767H103.846C100.226 25.9767 97.2642 23.0427 97.2642 19.4573V11.1237C97.2642 7.53831 100.226 4.60438 103.846 4.60438H103.87C107.49 4.6031 110.452 7.53704 110.452 11.1237ZM105.675 19.4254C105.675 19.3523 105.675 11.2622 105.675 11.1544C105.675 10.1183 104.863 9.2797 103.864 9.2797C102.864 9.2797 102.053 10.1196 102.053 11.1544C102.053 11.2583 102.053 19.3279 102.053 19.4254C102.053 20.4615 102.864 21.3002 103.864 21.3002C104.863 21.3002 105.675 20.4615 105.675 19.4254ZM72.7199 4.59028H72.6964C69.0765 4.59028 66.1144 7.52421 66.1144 11.1096C66.1144 11.1096 66.1205 23.6647 66.123 23.7044C66.2134 24.9855 67.243 25.9959 68.5041 25.9959C69.7677 25.9959 70.7998 24.979 70.8852 23.6942C70.8889 23.6377 70.9001 11.4481 70.9001 11.1211C70.9001 11.1198 70.9001 11.1185 70.9001 11.1173C70.9001 11.116 70.9001 11.1147 70.9001 11.1134V11.1121C70.9026 10.0786 71.7128 9.24251 72.7113 9.24251C73.7123 9.24251 74.5225 10.0824 74.5225 11.1173C74.5225 11.1839 74.5225 15.0616 74.5225 15.0616C74.5225 16.4273 75.5929 17.5352 76.9122 17.5352C78.2317 17.5352 79.3021 16.4273 79.3021 15.0616V11.1121C79.3021 7.52421 76.34 4.59028 72.7199 4.59028ZM88.2826 4.59028H88.259C84.639 4.59028 81.6769 7.52421 81.6769 11.1096L81.6794 23.5801C81.6807 23.6224 81.6819 23.6634 81.6857 23.7044C81.7761 24.9855 82.8055 25.9959 84.0666 25.9959C85.3304 25.9959 86.3623 24.979 86.4478 23.6942C86.4515 23.6377 86.4626 11.4481 86.4626 11.1211C86.4626 11.1198 86.4626 11.1185 86.4626 11.1173C86.4626 11.116 86.4626 11.1147 86.4626 11.1134V11.1121C86.4651 10.0786 87.2753 9.24251 88.2738 9.24251C89.2749 9.24251 90.085 10.0824 90.085 11.1173C90.085 11.1839 90.085 15.0616 90.085 15.0616C90.085 16.4273 91.1555 17.5352 92.4749 17.5352C93.7942 17.5352 94.8646 16.4273 94.8646 15.0616V11.1121C94.8646 7.52421 91.9025 4.59028 88.2826 4.59028ZM62.7681 11.534C62.7681 11.9508 62.7645 23.6455 62.7607 23.6916C62.6777 24.9803 61.6445 25.9998 60.3797 25.9998C59.0603 25.9998 57.9899 24.8919 57.9899 23.5262C57.9899 23.3493 58.0011 18.188 58.0011 18.1046C58.0011 17.3083 57.3879 16.7184 56.6483 16.7184C56.0152 16.7184 55.3239 17.2468 55.3239 18.102C55.3239 18.4956 55.2905 18.6854 55.2905 19.2446C55.2905 22.6311 52.6516 25.7433 48.8149 25.7433C48.8074 25.7433 41.6158 25.7433 41.2492 25.7433C37.7505 25.7433 34.9137 22.8082 34.9137 19.1855C34.9137 15.5643 37.7494 12.6278 41.2492 12.6278C41.6357 12.6278 56.4141 12.6535 56.5342 12.6535C57.3048 12.6535 57.9279 12.0072 57.9279 11.2109C57.9279 10.4145 57.3036 9.76826 56.5342 9.76826C56.3943 9.76826 38.1359 9.7721 37.9488 9.7721C36.7013 9.7721 35.6903 8.72574 35.6903 7.43445C35.6903 6.14316 36.7013 5.09679 37.9488 5.09679C38.1061 5.09679 54.8209 5.09295 56.4401 5.09295C60.3462 5.09295 62.7681 8.46671 62.7681 11.534ZM51.0175 19.1432C51.0151 18.0918 50.1888 17.2429 49.1741 17.2455C49.0057 17.2455 41.6618 17.2455 41.5217 17.2455C40.5059 17.2479 39.6857 18.1033 39.6881 19.1536C39.6906 20.205 40.517 21.0539 41.5316 21.0513C41.6715 21.0513 49.1072 21.0513 49.184 21.0513C50.1999 21.0488 51.0213 20.1947 51.0175 19.1432ZM124.442 12.606C123.123 12.606 122.053 13.7139 122.053 15.0797C122.053 15.0797 122.038 19.36 122.038 19.4305C122.038 20.464 121.229 21.3013 120.23 21.3013C119.232 21.3013 118.423 20.464 118.423 19.4305C118.423 19.3266 118.415 9.77083 118.415 9.77083H124.658V9.7657C125.866 9.71953 126.832 8.69368 126.832 7.43188C126.832 6.17009 125.866 5.14551 124.658 5.09808V5.08909H118.253C118.253 5.08909 118.261 2.78606 118.261 2.73734C118.262 1.42168 117.23 0.353516 115.958 0.353516C114.685 0.353516 113.653 1.42168 113.653 2.73862C113.653 2.74631 113.654 2.754 113.654 2.7617L113.645 19.4573C113.645 23.0427 116.607 25.9767 120.227 25.9767H120.25C123.87 25.9767 126.832 23.0427 126.832 19.4573C126.832 19.4573 126.828 14.9643 126.826 14.9643C126.768 13.6511 125.725 12.606 124.442 12.606ZM149.655 12.6304C149.655 12.6304 136.295 12.6278 134.985 12.6278C133.145 12.6278 133.168 9.758 134.985 9.758C136.212 9.758 153.106 9.77851 153.106 9.77851C154.357 9.77851 155.372 8.7283 155.372 7.43317C155.372 6.13803 154.357 5.08781 153.106 5.08781C153.106 5.08781 135.012 5.08909 134.711 5.08909C131.472 5.08909 128.845 7.8076 128.845 11.1608C128.845 14.5142 131.472 17.2326 134.711 17.2326C134.839 17.2326 149.288 17.2326 149.375 17.2326C150.393 17.2326 151.218 18.0866 151.218 19.1407C151.218 20.1947 150.393 21.0578 149.375 21.0578C149.267 21.0578 131.859 21.0615 131.677 21.0615C130.43 21.0615 129.419 22.1079 129.419 23.3992C129.419 24.6906 130.43 25.7369 131.677 25.7369C131.84 25.7369 149.598 25.7369 149.656 25.7369C153.16 25.7369 156.001 22.7966 156.001 19.1702C156 15.5412 153.158 12.6304 149.655 12.6304Z" fill="#EC5C2A"/>
</g>
<defs>
<clipPath id="clip0_101_16">
<rect width="156" height="26" fill="white"/>
</clipPath>
</defs>
</svg>
