<svg width="20" height="20" viewBox="0 0 20 20" fill="none" xmlns="http://www.w3.org/2000/svg">
<path fill-rule="evenodd" clip-rule="evenodd" d="M11.6593 0.451042C11.9625 0.168813 12.437 0.1858 12.7193 0.488982L19.4215 7.68882C19.7037 7.99201 19.6867 8.46658 19.3836 8.7488C19.0804 9.03103 18.6058 9.01405 18.3236 8.71086L11.6213 1.51102C11.3391 1.20784 11.3561 0.733271 11.6593 0.451042Z" fill="black"/>
<path fill-rule="evenodd" clip-rule="evenodd" d="M8.21326 0.451042C8.51645 0.733271 8.53343 1.20784 8.2512 1.51102L1.54896 8.71086C1.26673 9.01405 0.792165 9.03103 0.488982 8.7488C0.1858 8.46658 0.168813 7.99201 0.451042 7.68882L7.15328 0.488982C7.43551 0.1858 7.91008 0.168813 8.21326 0.451042Z" fill="black"/>
<path fill-rule="evenodd" clip-rule="evenodd" d="M0.21978 7.71392C0.362278 7.5466 0.570997 7.4502 0.790777 7.4502H19.0822C19.3019 7.4502 19.5107 7.5466 19.6532 7.71392C19.7957 7.88125 19.8576 8.10265 19.8226 8.31963L18.0806 19.1194C18.0219 19.4828 17.7082 19.75 17.3401 19.75H2.53281C2.1647 19.75 1.851 19.4828 1.79238 19.1194L0.0503477 8.31963C0.0153489 8.10265 0.0772824 7.88125 0.21978 7.71392ZM1.67145 8.9502L3.17153 18.25H16.7014L18.2015 8.9502H1.67145Z" fill="black"/>
</svg>
