<svg width="67" height="62" viewBox="0 0 67 62" fill="none" xmlns="http://www.w3.org/2000/svg">
<path fill-rule="evenodd" clip-rule="evenodd" d="M40.4811 0.45851C40.7801 0.171913 41.2549 0.182015 41.5415 0.481072L64.5415 24.4811C64.8281 24.7801 64.818 25.2549 64.5189 25.5415C64.2199 25.8281 63.7451 25.818 63.4585 25.5189L40.4585 1.51893C40.1719 1.21987 40.182 0.745106 40.4811 0.45851Z" fill="black"/>
<path fill-rule="evenodd" clip-rule="evenodd" d="M25.5303 0.46967C25.8232 0.762563 25.8232 1.23744 25.5303 1.53033L1.53035 25.5303C1.23745 25.8232 0.762578 25.8232 0.469685 25.5303C0.176792 25.2374 0.176792 24.7626 0.469685 24.4697L24.4697 0.46967C24.7626 0.176777 25.2375 0.176777 25.5303 0.46967Z" fill="black"/>
<path fill-rule="evenodd" clip-rule="evenodd" d="M0.235046 24.5166C0.37755 24.3477 0.587269 24.2503 0.808233 24.2503H65.2896C65.5106 24.2503 65.7203 24.3477 65.8628 24.5166C66.0053 24.6855 66.0661 24.9086 66.029 25.1264L59.8879 61.1264C59.8264 61.4868 59.5141 61.7503 59.1485 61.7503H6.94932C6.58377 61.7503 6.27147 61.4868 6.21 61.1264L0.0689131 25.1264C0.0317566 24.9086 0.0925417 24.6855 0.235046 24.5166ZM1.69701 25.7503L7.58221 60.2503H58.5157L64.4009 25.7503H1.69701Z" fill="black"/>
</svg>
