<svg width="16" height="16" viewBox="0 0 16 16" fill="none" xmlns="http://www.w3.org/2000/svg">
<path d="M0.22557 0.22557C0.526331 -0.0751901 1.01396 -0.0751901 1.31472 0.22557L15.7744 14.6853C16.0752 14.986 16.0752 15.4737 15.7744 15.7744C15.4737 16.0752 14.986 16.0752 14.6853 15.7744L0.22557 1.31472C-0.0751899 1.01396 -0.0751903 0.526331 0.22557 0.22557Z" fill="black"/>
<path d="M15.7744 0.22557C15.4737 -0.0751901 14.986 -0.0751901 14.6853 0.22557L0.22557 14.6853C-0.0751899 14.986 -0.0751903 15.4737 0.22557 15.7744C0.526331 16.0752 1.01396 16.0752 1.31472 15.7744L15.7744 1.31472C16.0752 1.01396 16.0752 0.526331 15.7744 0.22557Z" fill="black"/>
</svg>
