<svg width="26" height="20" viewBox="0 0 26 20" fill="none" xmlns="http://www.w3.org/2000/svg">
<path fill-rule="evenodd" clip-rule="evenodd" d="M0.25 3C0.25 1.48122 1.48122 0.25 3 0.25H23C24.5188 0.25 25.75 1.48122 25.75 3V17C25.75 18.5188 24.5188 19.75 23 19.75H3C1.48122 19.75 0.25 18.5188 0.25 17V3ZM3 1.75C2.30964 1.75 1.75 2.30964 1.75 3V17C1.75 17.6904 2.30964 18.25 3 18.25H23C23.6904 18.25 24.25 17.6904 24.25 17V3C24.25 2.30964 23.6904 1.75 23 1.75H3Z" fill="#EC5C2A"/>
<path fill-rule="evenodd" clip-rule="evenodd" d="M0.25 12.25C0.25 11.8358 0.585786 11.5 1 11.5H25C25.4142 11.5 25.75 11.8358 25.75 12.25C25.75 12.6642 25.4142 13 25 13H1C0.585786 13 0.25 12.6642 0.25 12.25Z" fill="#EC5C2A"/>
</svg>
