<svg width="18" height="18" viewBox="0 0 18 18" fill="none" xmlns="http://www.w3.org/2000/svg">
<path fill-rule="evenodd" clip-rule="evenodd" d="M0.25 2C0.25 1.0335 1.0335 0.25 2 0.25H16C16.9665 0.25 17.75 1.0335 17.75 2V12.2353C17.75 13.2018 16.9665 13.9853 16 13.9853H10.3177L5.17861 17.6129C4.9497 17.7745 4.64982 17.795 4.40105 17.6661C4.15227 17.5372 3.99609 17.2804 3.99609 17.0002V13.9853H2C1.0335 13.9853 0.25 13.2018 0.25 12.2353V2ZM9.62873 12.6355C9.75527 12.5405 9.91195 12.4853 10.0791 12.4853H16C16.1381 12.4853 16.25 12.3734 16.25 12.2353V2C16.25 1.86193 16.1381 1.75 16 1.75H2C1.86193 1.75 1.75 1.86193 1.75 2V12.2353C1.75 12.3734 1.86193 12.4853 2 12.4853H4.74609C5.16031 12.4853 5.49609 12.8211 5.49609 13.2353V15.5527L9.62873 12.6355Z" fill="black"/>
</svg>
