<svg width="17" height="18" viewBox="0 0 17 18" fill="none" xmlns="http://www.w3.org/2000/svg">
<path fill-rule="evenodd" clip-rule="evenodd" d="M8.55162 16.7774C9.13729 17.456 10.1082 17.6517 10.911 17.2531C11.7894 16.8169 12.2112 15.7996 11.8991 14.8699L10.7773 11.5277H13.6007C15.3178 11.5277 16.615 9.97147 16.3057 8.28244L15.2479 2.50466C15.0088 1.19861 13.8706 0.249922 12.5429 0.249922H6.36377C4.84499 0.249922 3.61377 1.48114 3.61377 2.99992V10.0339C3.61377 10.6936 3.85093 11.3314 4.28199 11.8308L8.55162 16.7774ZM10.2439 15.9096C10.0545 16.0036 9.82535 15.9575 9.68714 15.7973L5.41751 10.8507C5.22157 10.6237 5.11377 10.3338 5.11377 10.0339V2.99992C5.11377 2.30957 5.67341 1.74992 6.36377 1.74992H12.5429C13.1464 1.74992 13.6637 2.18114 13.7724 2.7748L14.8303 8.55258C14.9708 9.32032 14.3812 10.0277 13.6007 10.0277H8.69153L10.4771 15.3472C10.5507 15.5666 10.4512 15.8067 10.2439 15.9096Z" fill="black"/>
<path fill-rule="evenodd" clip-rule="evenodd" d="M0.969727 10.4775C1.38394 10.4775 1.71973 10.1418 1.71973 9.72754V1.72756C1.71973 1.31335 1.38394 0.97756 0.969727 0.97756C0.555513 0.97756 0.219727 1.31335 0.219727 1.72756V9.72754C0.219727 10.1418 0.555513 10.4775 0.969727 10.4775Z" fill="black"/>
</svg>
