<svg width="20" height="18" viewBox="0 0 20 18" fill="none" xmlns="http://www.w3.org/2000/svg">
<path fill-rule="evenodd" clip-rule="evenodd" d="M5.95 1.75C3.56964 1.75 1.75 3.54651 1.75 5.79564C1.75 7.18936 2.39006 8.51672 3.68245 10.0475C4.98265 11.5876 6.85704 13.2361 9.19 15.2856L9.19109 15.2866L10.0019 16.0016L10.8094 15.2948C10.8097 15.2946 10.8099 15.2944 10.8102 15.2941C13.143 13.2404 15.0172 11.5899 16.3174 10.0488C17.6099 8.51676 18.25 7.18938 18.25 5.79564C18.25 3.54651 16.4304 1.75 14.05 1.75C12.7024 1.75 11.4037 2.36139 10.5633 3.31749L10 3.95838L9.43668 3.31749C8.5963 2.36139 7.29764 1.75 5.95 1.75ZM0.25 5.79564C0.25 2.67365 2.78636 0.25 5.95 0.25C7.45712 0.25 8.90929 0.821529 10 1.76802C11.0907 0.821529 12.5429 0.25 14.05 0.25C17.2136 0.25 19.75 2.67365 19.75 5.79564C19.75 7.69782 18.8601 9.36117 17.4639 11.0161C16.0903 12.6442 14.1444 14.3573 11.8739 16.3561L11.8006 16.4207L11.799 16.4221L9.99812 17.9984L8.19891 16.4115L8.1494 16.368C5.86905 14.3647 3.91467 12.6478 2.5363 11.0152C1.13994 9.36121 0.25 7.69783 0.25 5.79564Z" fill="black"/>
</svg>
