<svg width="22" height="22" viewBox="0 0 22 22" fill="none" xmlns="http://www.w3.org/2000/svg">
<path fill-rule="evenodd" clip-rule="evenodd" d="M11 20C15.9706 20 20 15.9706 20 11C20 6.02944 15.9706 2 11 2C6.02944 2 2 6.02944 2 11C2 15.9706 6.02944 20 11 20ZM11 22C17.0751 22 22 17.0751 22 11C22 4.92487 17.0751 0 11 0C4.92487 0 0 4.92487 0 11C0 17.0751 4.92487 22 11 22Z" fill="#EC5C2A"/>
<path d="M7.15938 12.3354C7.01079 12.3354 6.95632 12.2353 7.03792 12.1116L11.6743 5.08118C11.7559 4.95758 11.8219 4.97621 11.8219 5.12961V9.39241C11.8219 9.54277 11.9468 9.66465 12.091 9.66465H14.8406C14.9892 9.66465 15.0437 9.7647 14.9621 9.88845L10.3257 16.9188C10.2441 17.0424 10.1781 17.0238 10.1781 16.8704V12.6076C10.1781 12.4572 10.0532 12.3354 9.90902 12.3354H7.15938Z" fill="#EC5C2A"/>
</svg>
