<svg width="23" height="24" viewBox="0 0 23 24" fill="none" xmlns="http://www.w3.org/2000/svg">
<path fill-rule="evenodd" clip-rule="evenodd" d="M11.9712 1.48966C12.6926 0.653872 13.8885 0.412789 14.8774 0.903794C15.9593 1.441 16.4789 2.69417 16.0945 3.83932L14.4275 8.80553H19.6006C21.3177 8.80553 22.6149 10.3618 22.3056 12.0508L20.5765 21.4952C20.3373 22.8013 19.1992 23.75 17.8714 23.75H8.00003C6.48125 23.75 5.25003 22.5188 5.25003 21V10.2993C5.25003 9.63958 5.48719 9.00185 5.91825 8.50244L11.9712 1.48966ZM14.2103 2.2473C13.8348 2.06085 13.3807 2.15239 13.1068 2.46977L7.05377 9.48254C6.85783 9.70955 6.75003 9.99942 6.75003 10.2993V21C6.75003 21.6903 7.30967 22.25 8.00003 22.25H17.8714C18.475 22.25 18.9923 21.8188 19.101 21.2251L20.8302 11.7806C20.9707 11.0129 20.3811 10.3055 19.6006 10.3055H12.3418L14.6725 3.362C14.8184 2.92715 14.6211 2.45129 14.2103 2.2473Z" fill="black"/>
<path fill-rule="evenodd" clip-rule="evenodd" d="M1.33337 10.25C1.74759 10.25 2.08337 10.5858 2.08337 11V22C2.08337 22.4142 1.74759 22.75 1.33337 22.75C0.91916 22.75 0.583374 22.4142 0.583374 22V11C0.583374 10.5858 0.91916 10.25 1.33337 10.25Z" fill="black"/>
</svg>
