<svg width="18" height="18" viewBox="0 0 18 18" fill="none" xmlns="http://www.w3.org/2000/svg">
<path fill-rule="evenodd" clip-rule="evenodd" d="M17.518 0.457591C17.7372 0.666992 17.8089 0.98784 17.6995 1.27063L11.5094 17.2706C11.4008 17.5513 11.135 17.7399 10.8342 17.7496C10.5334 17.7593 10.2559 17.5883 10.1294 17.3152L7.28237 11.1684L0.740787 8.75898C0.45393 8.65333 0.259904 8.38415 0.250367 8.0786C0.240831 7.77305 0.417693 7.49229 0.697403 7.36896L16.6974 0.313772C16.9748 0.191435 17.2987 0.248189 17.518 0.457591ZM3.00049 7.99276L8.09179 9.86798C8.27814 9.93661 8.42966 10.0764 8.51313 10.2566L10.748 15.0816L15.6481 2.41582L3.00049 7.99276Z" fill="#909090"/>
</svg>
