<svg width="18" height="18" viewBox="0 0 18 18" fill="none" xmlns="http://www.w3.org/2000/svg">
<path fill-rule="evenodd" clip-rule="evenodd" d="M7.21967 11.4697C6.92678 11.7626 6.92678 12.2374 7.21967 12.5303C7.51256 12.8232 7.98744 12.8232 8.28033 12.5303L11.2803 9.53033L11.8107 9L11.2803 8.46967L8.28033 5.46967C7.98744 5.17678 7.51256 5.17678 7.21967 5.46967C6.92678 5.76256 6.92678 6.23744 7.21967 6.53033L8.93934 8.25H0.75C0.335786 8.25 0 8.58579 0 9C0 9.41421 0.335786 9.75 0.75 9.75H8.93934L7.21967 11.4697Z" fill="black"/>
<path fill-rule="evenodd" clip-rule="evenodd" d="M4.75 0.25C4.33579 0.25 4 0.585786 4 1V6H5.5V1.75H16V16.25H5.5V12H4V17C4 17.1989 4.07902 17.3897 4.21967 17.5303C4.36032 17.671 4.55109 17.75 4.75 17.75H16.75C17.1642 17.75 17.5 17.4142 17.5 17V1C17.5 0.585786 17.1642 0.25 16.75 0.25H4.75Z" fill="black"/>
</svg>
