<svg width="16" height="16" viewBox="0 0 16 16" fill="none" xmlns="http://www.w3.org/2000/svg">
<path fill-rule="evenodd" clip-rule="evenodd" d="M9.81311 9.81342C10.106 9.52053 10.5809 9.52053 10.8738 9.81342L15.5303 14.47C15.8232 14.7629 15.8232 15.2378 15.5303 15.5307C15.2375 15.8235 14.7626 15.8235 14.4697 15.5307L9.81311 10.8741C9.52022 10.5812 9.52022 10.1063 9.81311 9.81342Z" fill="black"/>
<path fill-rule="evenodd" clip-rule="evenodd" d="M0.25 6.5C0.25 3.04822 3.04822 0.25 6.5 0.25C9.95178 0.25 12.75 3.04822 12.75 6.5C12.75 9.95178 9.95178 12.75 6.5 12.75C3.04822 12.75 0.25 9.95178 0.25 6.5ZM6.5 1.75C3.87665 1.75 1.75 3.87665 1.75 6.5C1.75 9.12335 3.87665 11.25 6.5 11.25C9.12335 11.25 11.25 9.12335 11.25 6.5C11.25 3.87665 9.12335 1.75 6.5 1.75Z" fill="black"/>
</svg>
