<svg width="18" height="18" viewBox="0 0 18 18" fill="none" xmlns="http://www.w3.org/2000/svg">
<path fill-rule="evenodd" clip-rule="evenodd" d="M9 13.75C9.41421 13.75 9.75 13.4142 9.75 13V3C9.75 2.58579 9.41421 2.25 9 2.25C8.58579 2.25 8.25 2.58579 8.25 3V13C8.25 13.4142 8.58579 13.75 9 13.75Z" fill="#909090"/>
<path fill-rule="evenodd" clip-rule="evenodd" d="M4.46967 6.53033C4.76256 6.82322 5.23744 6.82322 5.53033 6.53033L9 3.06066L12.4697 6.53033C12.7626 6.82322 13.2374 6.82322 13.5303 6.53033C13.8232 6.23744 13.8232 5.76256 13.5303 5.46967L9 0.93934L4.46967 5.46967C4.17678 5.76256 4.17678 6.23744 4.46967 6.53033Z" fill="#909090"/>
<path fill-rule="evenodd" clip-rule="evenodd" d="M0.25 17C0.25 16.5858 0.585786 16.25 1 16.25H17C17.4142 16.25 17.75 16.5858 17.75 17C17.75 17.4142 17.4142 17.75 17 17.75H1C0.585786 17.75 0.25 17.4142 0.25 17Z" fill="#909090"/>
</svg>
